<?xml version="1.0" standalone="no"?>
<!DOCTYPE svg PUBLIC "-//W3C//DTD SVG 20010904//EN"
 "http://www.w3.org/TR/2001/REC-SVG-20010904/DTD/svg10.dtd">
<svg version="1.0" xmlns="http://www.w3.org/2000/svg"
 width="500.000000pt" height="500.000000pt" viewBox="0 0 500.000000 500.000000"
 preserveAspectRatio="xMidYMid meet">

<g transform="translate(0.000000,500.000000) scale(0.100000,-0.100000)"
fill="#000000" stroke="none">
<path d="M317 4353 c-4 -3 -7 -35 -7 -70 l0 -63 110 0 c131 0 177 -15 213 -68
58 -84 59 -102 68 -672 8 -549 10 -583 61 -775 38 -144 138 -345 231 -464 118
-152 338 -259 717 -350 144 -35 407 -81 463 -81 l37 0 0 -337 c0 -186 -5 -366
-10 -401 -20 -143 -111 -266 -217 -295 -63 -18 -216 -37 -300 -37 l-53 0 0
-50 0 -50 870 0 870 0 0 50 0 50 -52 0 c-85 0 -238 19 -301 37 -109 30 -197
152 -218 300 -5 37 -8 217 -7 398 l3 330 35 3 c76 6 342 54 460 83 436 104
631 212 771 424 62 94 134 250 169 365 59 200 62 239 70 805 8 565 9 583 67
667 36 53 82 68 213 68 l110 0 0 71 0 71 -222 -5 c-184 -4 -238 -8 -307 -26
-160 -41 -250 -109 -310 -235 -83 -176 -131 -506 -131 -900 0 -387 -29 -676
-81 -808 -45 -116 -152 -230 -279 -297 -120 -64 -384 -131 -517 -131 l-54 0 3
1008 c3 1107 0 1043 64 1127 52 69 198 114 372 115 l82 0 0 75 0 75 -810 0
-810 0 0 -75 0 -75 83 0 c173 -1 319 -46 371 -115 64 -84 61 -20 64 -1127 l3
-1008 -54 0 c-133 0 -397 67 -517 131 -135 72 -247 198 -289 324 -46 139 -71
420 -71 787 0 400 -49 725 -136 904 -70 142 -182 210 -401 243 -78 12 -415 15
-426 4z"/>
</g>
</svg>
